<svg xmlns="http://www.w3.org/2000/svg" viewBox="0 0 512 512">
  <defs>
    <linearGradient id="bg" x1="0" y1="0" x2="1" y2="1">
      <stop offset="0%" stop-color="#1565C0"/>
      <stop offset="100%" stop-color="#42A5F5"/>
    </linearGradient>
  </defs>
  <rect width="512" height="512" rx="96" fill="url(#bg)"/>
  <!-- Grid background -->
  <rect x="96" y="96" width="320" height="320" rx="16" fill="#1a237e" opacity="0.6"/>
  <!-- Blocks -->
  <rect x="96" y="96" width="76" height="76" rx="10" fill="#F44336"/>
  <rect x="178" y="96" width="76" height="76" rx="10" fill="#F44336"/>
  <rect x="96" y="178" width="76" height="76" rx="10" fill="#4CAF50"/>
  <rect x="260" y="178" width="76" height="76" rx="10" fill="#2196F3"/>
  <rect x="342" y="178" width="76" height="76" rx="10" fill="#2196F3"/>
  <rect x="178" y="260" width="76" height="76" rx="10" fill="#4CAF50"/>
  <rect x="260" y="260" width="76" height="76" rx="10" fill="#F44336"/>
  <rect x="342" y="260" width="76" height="76" rx="10" fill="#4CAF50"/>
  <rect x="96" y="342" width="76" height="76" rx="10" fill="#2196F3"/>
  <rect x="178" y="342" width="76" height="76" rx="10" fill="#F44336"/>
  <rect x="260" y="342" width="76" height="76" rx="10" fill="#4CAF50"/>
</svg>
